<svg width="48" height="48" viewBox="0 0 48 48" fill="none" xmlns="http://www.w3.org/2000/svg">
<g id="Icon/Outline/Notificaiones">
<path id="Outline Notificaiones" fill-rule="evenodd" clip-rule="evenodd" d="M22.4684 6.30448C22.9537 6.10346 23.4738 6 23.9991 6C24.5244 6 25.0445 6.10346 25.5298 6.30448C26.0151 6.5055 26.4561 6.80014 26.8275 7.17157C27.199 7.54301 27.4936 7.98396 27.6946 8.46927C27.8731 8.90016 27.9747 9.35852 27.9952 9.82356C29.1927 10.1571 30.117 10.652 30.8394 11.2605C32.2218 12.425 32.9305 14.0604 33.3484 15.9757C33.6499 17.3575 33.7903 18.8202 33.9342 20.3191L33.9359 20.3361C33.9944 20.9453 34.0536 21.5617 34.1244 22.1884C34.3651 24.3163 34.735 26.4516 35.6987 28.2668C37.6131 31.8727 38.2431 34.0523 38.4179 35.2598C38.5069 35.8749 38.008 36.3496 37.4525 36.3496H29.7452C29.8814 36.524 29.9438 36.7493 29.8871 36.9916C29.6089 38.1816 28.8453 39.1167 27.9274 39.7658C26.782 40.5758 25.3277 41 23.9999 41C22.6722 41 21.2179 40.5758 20.0725 39.7658C19.1546 39.1167 18.391 38.1816 18.1128 36.9916C18.0561 36.7493 18.1185 36.524 18.2547 36.3496H10.474C9.93555 36.3496 9.43956 35.9008 9.50762 35.2952C9.64152 34.1037 10.225 31.9196 12.1606 28.2664C13.1237 26.4489 13.5011 24.3128 13.7526 22.1846C13.825 21.5722 13.8864 20.9694 13.9472 20.3734L13.9489 20.3561L13.9489 20.3561C14.1032 18.8428 14.2538 17.366 14.568 15.9734C15 14.0593 15.7225 12.4242 17.1162 11.2597C17.8503 10.6463 18.7886 10.1487 20.0034 9.81528C20.0247 9.35308 20.1262 8.8976 20.3036 8.46927C20.5046 7.98396 20.7992 7.54301 21.1707 7.17157C21.5421 6.80014 21.9831 6.5055 22.4684 6.30448ZM19.7833 36.3496C19.9617 36.5225 20.1065 36.7425 20.211 36.9695C20.4161 37.4149 20.7643 37.8055 21.2273 38.1328C22.0152 38.69 23.0609 39 23.9999 39C24.939 39 25.9847 38.69 26.7726 38.1328C27.2355 37.8055 27.5838 37.4149 27.7889 36.9695C27.8934 36.7425 28.0382 36.5225 28.2165 36.3496H19.7833ZM25.8468 9.23463C25.8751 9.30291 25.8996 9.37257 25.92 9.44328C25.3261 9.38183 24.6834 9.34961 23.9875 9.34961C23.3013 9.34961 22.6666 9.38089 22.0789 9.44062C22.0992 9.37083 22.1234 9.30206 22.1513 9.23463C22.2518 8.99198 22.3992 8.7715 22.5849 8.58579C22.7706 8.40007 22.9911 8.25275 23.2337 8.15224C23.4764 8.05173 23.7364 8 23.9991 8C24.2617 8 24.5218 8.05173 24.7645 8.15224C25.0071 8.25275 25.2276 8.40007 25.4133 8.58579C25.599 8.7715 25.7463 8.99198 25.8468 9.23463ZM23.9875 10.3496C20.7756 10.3496 18.909 11.0649 17.7574 12.0271C16.6021 12.9923 15.952 14.3833 15.5435 16.1935C15.2437 17.522 15.0982 18.9427 14.942 20.4748L14.9419 20.4765L14.9418 20.4767L14.9418 20.4769C14.8812 21.0711 14.8191 21.681 14.7457 22.302C14.4922 24.4463 14.1001 26.7419 13.0443 28.7346C11.1756 32.2615 10.6358 34.3104 10.5081 35.3496H37.4202C37.2563 34.2814 36.6683 32.2257 34.8154 28.7357C33.7575 26.743 33.3734 24.4457 33.1308 22.3008C33.0589 21.6651 32.999 21.0412 32.9407 20.4339L32.9406 20.4336L32.9404 20.4317C32.7948 18.9142 32.659 17.5071 32.3714 16.1889C31.976 14.3768 31.338 12.9881 30.1951 12.0254C29.0561 11.0659 27.1999 10.3496 23.9875 10.3496Z" fill="#9D0000"/>
</g>
</svg>
