<?xml version="1.0" encoding="utf-8"?>
<!-- Generator: Adobe Illustrator 24.3.0, SVG Export Plug-In . SVG Version: 6.00 Build 0)  -->
<svg version="1.1" id="Capa_1" xmlns="http://www.w3.org/2000/svg" xmlns:xlink="http://www.w3.org/1999/xlink" x="0px" y="0px"
	 viewBox="0 0 20 16" style="enable-background:new 0 0 20 16;" xml:space="preserve">
<style type="text/css">
	.st0{fill-rule:evenodd;clip-rule:evenodd;fill:#04383F;}
</style>
<g id="Group_124">
	<path id="Union" class="st0" d="M1.91,0.15c-0.2-0.2-0.51-0.2-0.71,0c-0.2,0.2-0.2,0.51,0,0.71l3.46,3.46
		C3.4,4.98,2.34,5.77,1.56,6.43C1.11,6.81,0.76,7.15,0.51,7.4C0.39,7.52,0.29,7.62,0.23,7.69C0.2,7.72,0.17,7.75,0.15,7.77
		L0.13,7.79L0.13,7.8l0,0l0,0c-0.17,0.19-0.17,0.48,0,0.66l0,0l0,0l0.01,0.01C0.15,8.49,0.16,8.5,0.18,8.52
		c0.03,0.04,0.09,0.09,0.15,0.16C0.46,8.82,0.65,9.01,0.9,9.24c0.49,0.46,1.2,1.07,2.08,1.68c1.75,1.22,4.21,2.47,6.96,2.47
		c1.14,0,2.23-0.22,3.24-0.56l2.8,2.8c0.2,0.2,0.51,0.2,0.71,0c0.2-0.2,0.2-0.51,0-0.71L6.41,4.64L5.87,4.1
		C5.85,4.07,5.82,4.05,5.79,4.03L1.91,0.15z M0.13,8.46L0.5,8.13C0.13,8.46,0.13,8.46,0.13,8.46z M0.5,8.13L0.13,7.8
		C0.13,7.8,0.13,7.8,0.5,8.13z M5.4,5.05l0.29,0.29l0.57,0.59c-0.37,0.64-0.59,1.4-0.59,2.2c0,1.93,1.22,3.57,2.93,4.15
		c-1.94-0.31-3.7-1.23-5.06-2.18c-0.83-0.58-1.5-1.16-1.97-1.59C1.43,8.36,1.3,8.24,1.19,8.13l0.02-0.02
		c0.23-0.23,0.57-0.55,0.99-0.91C3,6.52,4.1,5.71,5.4,5.05z M12.24,12.07c-0.33,0.09-0.67,0.16-1.01,0.22
		c0.3-0.1,0.58-0.23,0.85-0.39L12.24,12.07z M8.04,5.04c-0.11-0.25,0-0.55,0.25-0.66C8.83,4.14,9.42,4,10.04,4
		c2.37,0,4.28,1.92,4.28,4.28c0,0.58-0.12,1.14-0.33,1.64c-0.11,0.25-0.4,0.38-0.65,0.27L8.04,5.04z M10.06,2.89
		c-1.08,0-2.11,0.2-3.07,0.51C6.73,3.48,6.59,3.76,6.67,4.02C6.76,4.29,7.04,4.43,7.3,4.35c0.88-0.28,1.8-0.46,2.76-0.46
		c2.46,0,4.72,1.13,6.39,2.29c0.83,0.58,1.5,1.16,1.97,1.59c0.15,0.14,0.29,0.27,0.39,0.38l0,0c-0.22,0.22-0.53,0.52-0.94,0.87
		c-0.81,0.7-1.97,1.56-3.34,2.24c-0.25,0.12-0.35,0.42-0.23,0.67c0.12,0.25,0.42,0.35,0.67,0.23c1.47-0.73,2.69-1.64,3.54-2.38
		c0.43-0.37,0.76-0.69,1-0.92c0.12-0.12,0.21-0.21,0.27-0.27c0.03-0.03,0.05-0.06,0.07-0.08l0.02-0.02l0.01-0.01l0,0l0,0
		c0.17-0.19,0.17-0.48,0-0.66l0,0l0,0L19.86,7.8c-0.01-0.01-0.02-0.02-0.04-0.04c-0.03-0.04-0.09-0.09-0.15-0.16
		c-0.13-0.14-0.32-0.33-0.57-0.56c-0.49-0.46-1.2-1.07-2.08-1.68C15.28,4.14,12.81,2.89,10.06,2.89z M19.5,8.15
		c0.37,0.33,0.37,0.33,0.37,0.33L19.5,8.15z M19.87,7.82c0,0,0,0-0.37,0.33L19.87,7.82z"/>
</g>
</svg>
