<?xml version="1.0" encoding="utf-8"?>
<!-- Generator: Adobe Illustrator 24.3.0, SVG Export Plug-In . SVG Version: 6.00 Build 0)  -->
<svg version="1.1" id="Capa_1" xmlns="http://www.w3.org/2000/svg" xmlns:xlink="http://www.w3.org/1999/xlink" x="0px" y="0px"
	 viewBox="0 0 1920 1080" style="enable-background:new 0 0 1920 1080;" xml:space="preserve">
<style type="text/css">
	.st0{fill:#04383F;}
	.st1{fill:none;stroke:#FFFFFF;stroke-width:1.5739;stroke-linecap:round;stroke-miterlimit:10;}
	.st2{fill:none;stroke:#04383F;stroke-width:1.5739;stroke-linecap:round;stroke-miterlimit:10;}
</style>
<g>
	<g>
		<path class="st0" d="M36.57,19.02c-4.45-4.41-9.1-6.65-13.8-6.65c-1.86,0-3.73,0.36-5.55,1.06c-1.44,0.56-2.86,1.33-4.21,2.3
			c-2.29,1.65-3.6,3.29-3.66,3.36c-0.22,0.28-0.22,0.66,0,0.94c0.05,0.07,1.36,1.71,3.66,3.36c1.35,0.97,2.77,1.75,4.21,2.3
			c1.82,0.7,3.69,1.06,5.55,1.06c4.7,0,9.34-2.24,13.8-6.65C36.87,19.81,36.87,19.33,36.57,19.02z M22.99,25.1
			c-3.05,0-5.53-2.48-5.53-5.53c0-3.05,2.48-5.53,5.53-5.53c3.05,0,5.53,2.48,5.53,5.53C28.52,22.62,26.04,25.1,22.99,25.1z
			 M14.07,22.17c-1.41-1.01-2.43-2.03-2.95-2.6C11.64,19,12.64,18,14.04,17c1.06-0.76,2.47-1.61,4.15-2.21
			c-1.22,1.23-1.97,2.92-1.97,4.78c0,1.87,0.76,3.57,1.99,4.8C16.8,23.86,15.42,23.13,14.07,22.17z M28.03,24.1
			c1.08-1.2,1.74-2.79,1.74-4.54c0-1.74-0.66-3.33-1.74-4.54c2.27,0.92,4.52,2.44,6.74,4.54C32.55,21.67,30.29,23.18,28.03,24.1z"/>
		
			<ellipse transform="matrix(0.9991 -0.0416 0.0416 0.9991 -0.793 0.9719)" class="st0" cx="22.98" cy="19.56" rx="6.07" ry="6.07"/>
	</g>
	<g>
		<line class="st1" x1="12.92" y1="10.03" x2="35.14" y2="26.44"/>
		<line class="st2" x1="12.16" y1="10.99" x2="34.38" y2="27.39"/>
	</g>
</g>
</svg>
