<svg width="20" height="12" viewBox="0 0 20 12" fill="none" xmlns="http://www.w3.org/2000/svg">
<g id="Ver Detalles">
<path id="Subtract" fill-rule="evenodd" clip-rule="evenodd" d="M9.99999 11.7165C15.5246 11.7165 20.0039 5.99997 20.0039 5.99997C20.0039 5.99997 15.5246 0.283447 9.99999 0.283447C4.47534 0.283447 -0.00390625 5.99997 -0.00390625 5.99997C-0.00390625 5.99997 4.47534 11.7165 9.99999 11.7165ZM6.56298 6.01412C6.56298 4.11905 8.12378 2.58279 10.0491 2.58279C11.9744 2.58279 13.5352 4.11905 13.5352 6.01412C13.5352 7.9092 11.9744 9.44546 10.0491 9.44546C8.12378 9.44546 6.56298 7.9092 6.56298 6.01412ZM10.0491 1.82821C7.70038 1.82821 5.79635 3.7023 5.79635 6.01412C5.79635 8.32595 7.70038 10.2001 10.0491 10.2001C12.3978 10.2001 14.3018 8.32595 14.3018 6.01412C14.3018 3.7023 12.3978 1.82821 10.0491 1.82821Z" fill="#367200"/>
</g>
</svg>
