<?xml version="1.0" encoding="utf-8"?>
<!-- Generator: Adobe Illustrator 24.3.0, SVG Export Plug-In . SVG Version: 6.00 Build 0)  -->
<svg version="1.1" id="Capa_1" xmlns="http://www.w3.org/2000/svg" xmlns:xlink="http://www.w3.org/1999/xlink" x="0px" y="0px"
	 viewBox="0 0 1920 1080" style="enable-background:new 0 0 1920 1080;" xml:space="preserve">
<style type="text/css">
	.st0{fill:#04383F;}
</style>
<g>
	<path class="st0" d="M45.76,30.13c-4.37-4.49-8.93-6.76-13.54-6.76c-1.83,0-3.66,0.36-5.45,1.08c-1.42,0.57-2.81,1.36-4.13,2.34
		c-2.25,1.68-3.53,3.34-3.59,3.41c-0.22,0.28-0.22,0.67,0,0.96c0.05,0.07,1.34,1.74,3.59,3.41c1.33,0.99,2.72,1.78,4.13,2.34
		c1.79,0.72,3.62,1.08,5.45,1.08c4.61,0,9.17-2.28,13.54-6.76C46.06,30.93,46.06,30.44,45.76,30.13z M32.43,36.31
		c-2.99,0-5.43-2.53-5.43-5.63c0-3.1,2.44-5.63,5.43-5.63c2.99,0,5.43,2.53,5.43,5.63C37.86,33.79,35.43,36.31,32.43,36.31z
		 M23.69,33.33c-1.38-1.02-2.38-2.06-2.9-2.64c0.51-0.58,1.49-1.6,2.86-2.62c1.04-0.78,2.42-1.63,4.07-2.25
		c-1.2,1.25-1.94,2.97-1.94,4.86c0,1.9,0.75,3.63,1.95,4.88C26.36,35.05,25.01,34.31,23.69,33.33z M37.38,35.3
		c1.06-1.22,1.71-2.84,1.71-4.62c0-1.77-0.65-3.39-1.71-4.62c2.22,0.94,4.44,2.48,6.62,4.62C41.81,32.82,39.6,34.36,37.38,35.3z"/>
	<ellipse class="st0" cx="32.43" cy="30.68" rx="5.96" ry="6.18"/>
</g>
</svg>
