<?xml version="1.0" encoding="utf-8"?>
<!-- Generator: Adobe Illustrator 24.3.0, SVG Export Plug-In . SVG Version: 6.00 Build 0)  -->
<svg version="1.1" id="Capa_1" xmlns="http://www.w3.org/2000/svg" xmlns:xlink="http://www.w3.org/1999/xlink" x="0px" y="0px"
	 viewBox="0 0 20 12" style="enable-background:new 0 0 20 12;" xml:space="preserve">
<style type="text/css">
	.st0{fill-rule:evenodd;clip-rule:evenodd;fill:#04383F;}
</style>
<g id="Ver_Detalles">
	<path id="Subtract" class="st0" d="M10,11.72C15.52,11.72,20,6,20,6s-4.48-5.72-10-5.72C4.48,0.28,0,6,0,6S4.48,11.72,10,11.72z
		 M6.56,6.01c0-1.9,1.56-3.43,3.49-3.43c1.93,0,3.49,1.54,3.49,3.43c0,1.9-1.56,3.43-3.49,3.43C8.12,9.45,6.56,7.91,6.56,6.01z
		 M10.05,1.83C7.7,1.83,5.8,3.7,5.8,6.01c0,2.31,1.9,4.19,4.25,4.19c2.35,0,4.25-1.87,4.25-4.19C14.3,3.7,12.4,1.83,10.05,1.83z"/>
</g>
</svg>
